<?xml version="1.0" encoding="UTF-8"?>
<svg version="1.1" xmlns="http://www.w3.org/2000/svg" width="900" height="886">
<path d="M0 0 C0.66 0 1.32 0 2 0 C5.43423862 12.30940778 8.2653054 24.72800729 11.04296875 37.19921875 C11.52921722 39.37162166 12.01574041 41.54396309 12.5025177 43.71624756 C13.79999166 49.50990305 15.09374535 55.30438295 16.38659668 61.0990715 C17.72792292 67.1088522 19.0720932 73.11799671 20.41601562 79.12719727 C22.04331858 86.4042834 23.67026577 93.6814483 25.29562378 100.95896912 C28.43016635 114.99230211 31.57617215 129.02298014 34.73745155 143.05031395 C35.93667309 148.37318511 37.13365985 153.69655928 38.33064938 159.01993275 C39.25314418 163.12161782 40.17710237 167.22296208 41.1043396 171.32357788 C41.95941476 175.10528368 42.81060257 178.8878425 43.65869713 182.67111969 C43.96499534 184.0340983 44.27277149 185.39674577 44.58216286 186.75902557 C44.99879542 188.59424375 45.40971518 190.43075611 45.8203125 192.26733398 C46.04992676 193.28584946 46.27954102 194.30436493 46.51611328 195.35374451 C47 198 47 198 47 202 C51.67528032 203.86065119 55.10753972 204.31892368 60 203 C65.45868194 198.27633164 69.25089815 191.75014387 73.17431641 185.76123047 C75.8840466 181.66293567 78.78738252 177.71451301 81.6875 173.75 C82.75472523 172.26621371 83.82114059 170.78184457 84.88671875 169.296875 C88.35141288 164.49313215 91.91261529 159.76482999 95.48120117 155.03808594 C99.22040077 150.07212448 102.87297275 145.04833525 106.5 140 C110.5892426 134.3102236 114.72106047 128.65872505 118.9375 123.0625 C128.52469435 110.33776498 137.94282327 97.49279692 147.24584961 84.55908203 C151.24789737 79.00842373 155.33680148 73.52864891 159.45898438 68.06689453 C163.41006969 62.81845749 167.28042557 57.51437146 171.125 52.1875 C171.9603125 51.03024414 171.9603125 51.03024414 172.8125 49.84960938 C174.91850047 46.92373559 176.9999839 44.00002415 179 41 C179.66 41 180.32 41 181 41 C180.31942185 51.06937112 178.98992288 61.01539803 177.60742188 71.00585938 C177.36232868 72.79418354 177.11750905 74.58254523 176.87294006 76.37094116 C176.21265791 81.19306489 175.54841869 86.01463569 174.88331032 90.83609581 C174.1864127 95.89212008 173.4927961 100.94859458 172.79870605 106.00500488 C171.63413338 114.48508784 170.46702181 122.96481838 169.29833984 131.44433594 C167.94713332 141.24838411 166.59976803 151.05295432 165.25447989 160.85781622 C163.95855551 170.30237228 162.66012973 179.74658274 161.36048889 189.19062805 C160.80789475 193.20637954 160.2561441 197.22224558 159.70506287 201.23820496 C159.05702807 205.95976107 158.40679537 210.68100939 157.75485039 215.40202713 C157.51584201 217.13536293 157.27758637 218.8688027 157.04013252 220.60235214 C156.7163389 222.96529114 156.38983303 225.32783978 156.06262207 227.69030762 C155.96894332 228.3786234 155.87526458 229.06693919 155.77874708 229.77611303 C155.34280197 232.90326402 154.85479465 235.95776372 154 239 C154.72316406 239.26296875 155.44632813 239.5259375 156.19140625 239.796875 C159.9221393 241.39501934 163.07165353 243.6517289 166.40234375 245.953125 C169.00647135 247.28108055 169.00647135 247.28108055 171.9375 246.39453125 C175.15005206 244.93167272 178.06248795 243.30020493 181.0625 241.4375 C182.38430954 240.62709769 183.70734265 239.81868944 185.03125 239.01171875 C186.17787109 238.31248291 186.17787109 238.31248291 187.34765625 237.59912109 C192.25935443 234.63781558 197.21588397 231.75231726 202.16720581 228.85794067 C205.35329271 226.99543549 208.53801495 225.13060059 211.72265625 223.265625 C212.34902481 222.89885147 212.97539337 222.53207794 213.6207428 222.15419006 C219.08914954 218.95072849 224.54645526 215.72869516 230 212.5 C238.34222241 207.56289291 246.69888083 202.65073741 255.0625 197.75 C255.97730133 197.21392624 255.97730133 197.21392624 256.9105835 196.66702271 C262.50229146 193.39048611 268.09466293 190.11508343 273.68798828 186.84130859 C301.49341872 171.05650806 301.49341872 171.05650806 328.6484375 154.23779297 C329.81246094 153.62508545 329.81246094 153.62508545 331 153 C331.99 153.33 332.98 153.66 334 154 C325.26579378 169.76893081 316.48387539 185.508285 307.59277344 201.18945312 C304.89084018 205.95718085 302.19581166 210.7288092 299.5 215.5 C298.41669884 217.41668485 297.33336552 219.33335153 296.25 221.25 C295.71375 222.19875 295.1775 223.1475 294.625 224.125 C293 227 291.375 229.875 289.75 232.75 C289.2139917 233.69834717 288.6779834 234.64669434 288.12573242 235.6237793 C287.04004345 237.54456346 285.95426842 239.46529897 284.8684082 241.38598633 C282.19541578 246.11426453 279.52381913 250.84331912 276.85546875 255.57421875 C272.21419578 263.79938658 267.56661051 272.02050068 262.87109375 280.21484375 C262.5183287 280.83076889 262.16556366 281.44669403 261.80210876 282.08128357 C260.0848154 285.07920795 258.36564175 288.07600921 256.64331055 291.07104492 C252.29876927 298.64839861 248.1031974 306.29004927 244 314 C244.66386719 314.85722656 245.32773437 315.71445312 246.01171875 316.59765625 C246.90371214 317.75255296 247.79563546 318.90750379 248.6875 320.0625 C249.12255859 320.62388672 249.55761719 321.18527344 250.00585938 321.76367188 C250.44091797 322.32763672 250.87597656 322.89160156 251.32421875 323.47265625 C251.71697998 323.98062744 252.10974121 324.48859863 252.5144043 325.01196289 C253.89974997 326.86584454 255.24924192 328.73999897 256.59284973 330.62425232 C257.04350705 331.25600089 257.49416437 331.88774946 257.95847797 332.53864193 C258.30218024 333.02089009 258.64588251 333.50313826 259 334 C259.87456408 333.87687596 259.87456408 333.87687596 260.76679611 333.75126457 C275.19424027 331.72018874 289.6218366 329.69019623 304.04958725 327.66129875 C311.02775736 326.6799714 318.00588146 325.69831929 324.98388672 324.71582031 C357.9793023 320.07027944 390.97885219 315.4597241 424 311 C424 311.99 424 312.98 424 314 C422.0859375 315.83984375 422.0859375 315.83984375 419.375 317.9375 C418.37210938 318.73027344 417.36921875 319.52304687 416.3359375 320.33984375 C415.79420898 320.76765137 415.25248047 321.19545898 414.69433594 321.63623047 C411.73453387 324.01857259 408.87247834 326.51370077 406 329 C401.87618355 332.55549497 397.72788095 336.06795546 393.5 339.5 C388.09923828 343.88712902 382.825323 348.41223412 377.55078125 352.94921875 C370.31183876 359.17522367 363.04134091 365.3608624 355.625 371.375 C350.50266476 375.54156423 345.52582622 379.86201281 340.54956055 384.20043945 C336.04197757 388.1212975 331.45615909 391.9283474 326.8125 395.6875 C323.47717738 398.42987637 320.20658441 401.24181235 316.9375 404.0625 C311.3933772 408.84416381 305.76423356 413.48424099 300 418 C301.2223858 425.44690295 302.8352956 432.75769406 304.67871094 440.07202148 C305.59649208 443.81644711 306.08548592 447.15645351 306 451 C306.95596069 451.23155792 307.91192139 451.46311584 308.89685059 451.70169067 C319.06329235 454.18914236 329.11439204 456.98339777 339.15625 459.9296875 C340.77541369 460.40224716 342.39465819 460.87452998 344.01397705 461.34655762 C348.29675218 462.59576957 352.57844175 463.84866251 356.85990906 465.10234833 C361.29170815 466.39936311 365.72450966 467.69294257 370.15722656 468.98681641 C377.18668178 471.03903735 384.21560482 473.09307009 391.24414062 475.1484375 C399.74974479 477.63557001 408.25713487 480.11650835 416.765625 482.59375 C419.02408972 483.2514608 421.28255332 483.90917546 423.54101562 484.56689453 C426.61741085 485.46277897 429.69381247 486.3586413 432.77026367 487.2543335 C435.50847258 488.05178022 438.24645935 488.84998462 440.984375 489.6484375 C441.76798401 489.87648071 442.55159302 490.10452393 443.35894775 490.33947754 C446.25572705 491.18486197 449.13690718 492.04563573 452 493 C451.67 493.99 451.34 494.98 451 496 C449.28969288 496.84375954 449.28969288 496.84375954 447.01948547 497.51504517 C446.16115112 497.77541565 445.30281677 498.03578613 444.41847229 498.30404663 C443.46866989 498.57834503 442.51886749 498.85264343 441.5402832 499.13525391 C440.54469391 499.43334961 439.54910461 499.73144531 438.52334595 500.03857422 C435.20253406 501.02967733 431.87678844 502.00304981 428.55078125 502.9765625 C426.22478867 503.66707074 423.899125 504.3586878 421.57377625 505.05136108 C415.41199814 506.88362776 409.2459346 508.70104238 403.07885742 510.51538086 C396.92439652 512.32856714 390.77383067 514.15485548 384.62304688 515.98046875 C377.50751289 518.09166055 370.39145313 520.20098945 363.27249146 522.30059814 C353.5028405 525.18212448 343.73447149 528.06536083 333.98974609 531.03027344 C332.89947821 531.36126447 332.89947821 531.36126447 331.78718472 531.69894218 C328.58966958 532.67017058 325.39413717 533.64675841 322.20149231 534.63394165 C320.62098335 535.11557266 320.62098335 535.11557266 319.00854492 535.60693359 C318.12470627 535.87976166 317.24086761 536.15258972 316.33024597 536.4336853 C314 537 314 537 310 537 C309.98582031 537.85335937 309.97164062 538.70671875 309.95703125 539.5859375 C307.21101554 611.5760791 267.19802132 681.34959346 217 731 C218.91845876 736.96320658 221.04167868 742.79325504 223.4140625 748.58984375 C223.74148438 749.39618256 224.06890625 750.20252136 224.40625 751.03329468 C225.11073325 752.76735806 225.81643535 754.5009267 226.52325439 756.23403931 C227.64216594 758.97962175 228.75599711 761.72721852 229.86865234 764.4753418 C233.45293082 773.32083004 237.05775935 782.15714752 240.71304321 790.97355652 C242.30792077 794.82397167 243.89330769 798.67825906 245.47772217 802.5329895 C246.24020546 804.38025811 247.00747407 806.22555903 247.77960205 808.06881714 C248.85698258 810.6414686 249.91834812 813.22019922 250.9765625 815.80078125 C251.29963379 816.56039154 251.62270508 817.32000183 251.95556641 818.10263062 C253.56794689 822.0830247 254.5843218 824.89004387 253 829 C250.953125 831.10546875 250.953125 831.10546875 248.25 833.1875 C247.24453125 833.96867188 246.2390625 834.74984375 245.203125 835.5546875 C244.67267578 835.9578418 244.14222656 836.36099609 243.59570312 836.77636719 C242.0601899 837.95384459 240.552796 839.16771751 239.046875 840.3828125 C216.37987489 858.45829208 189.94129511 872.31118075 163.125 883.125 C162.38185547 883.43268311 161.63871094 883.74036621 160.87304688 884.05737305 C156.73720786 885.67132408 154.26651848 886.07329749 150 885 C145.65228962 863.1536092 141.30554526 841.30702638 136.9599123 819.46022224 C134.94157774 809.31356156 132.9229417 799.16696104 130.90356445 789.02050781 C129.14093836 780.16410833 127.37890998 771.30759015 125.61756295 762.4509362 C124.68723516 757.77303466 123.7566329 753.09518815 122.82531166 748.41748428 C120.98171966 739.15677339 119.14247536 729.89524584 117.3146829 720.63140237 C116.47256855 716.3690398 115.61949808 712.10912256 114.75388724 707.85147059 C114.14342498 704.84093114 113.54394636 701.82819753 112.94213867 698.81591797 C112.72558026 697.77050402 112.50902185 696.72509007 112.28590107 695.6479969 C112.09831321 694.6987377 111.91072535 693.74947849 111.717453 692.77145386 C111.55318912 691.9626219 111.38892523 691.15378994 111.21968365 690.32044792 C110.96397762 687.61950716 111.23498398 685.60111765 112 683 C113.82589395 680.91202979 115.60442661 679.06374672 117.625 677.1875 C121.04278727 673.94709156 124.32418956 670.68593792 127.3984375 667.11328125 C131.6850104 662.1414963 136.35557597 657.59376456 141.0390625 653 C144.91567178 649.16829353 148.59534521 645.25845454 152.10978699 641.09118652 C154 639 154 639 155.94966125 637.30432129 C162.23673898 631.80639321 164.06180567 626.30467298 166.04296875 618.34375 C166.37420746 617.10743835 166.70544617 615.87112671 167.04672241 614.59735107 C167.94012129 611.26194935 168.80041018 607.91883867 169.65452957 604.57319641 C170.54861343 601.09530842 171.47357568 597.62566693 172.39624023 594.15527344 C173.70671731 589.21575833 175.00769094 584.27393283 176.29572773 579.32851791 C178.47293404 570.96939695 180.71161529 562.62848716 182.9921875 554.296875 C183.45293419 552.6121106 183.45293419 552.6121106 183.92298889 550.89331055 C184.51667883 548.72348906 185.11058947 546.55372795 185.70474243 544.3840332 C187.06073245 539.42958232 188.41145217 534.47376061 189.75390625 529.515625 C190.0994606 528.25138702 190.0994606 528.25138702 190.45199585 526.96160889 C191.5866811 523.03728857 191.5866811 523.03728857 192 519 C191.32050293 519.35489502 190.64100586 519.70979004 189.94091797 520.07543945 C172.95221711 528.93550128 155.87981905 537.61144142 138.71435547 546.12426758 C130.98003902 549.96636662 123.28865895 553.87286436 115.65625 557.9140625 C106.41298522 562.80811617 97.10192325 567.55863564 87.75146484 572.24438477 C85.07492595 573.58763012 82.40276847 574.93936013 79.73046875 576.29101562 C78.01067796 577.15416665 76.29063563 578.0168167 74.5703125 578.87890625 C73.78077179 579.27985001 72.99123108 579.68079376 72.17776489 580.09388733 C64.51945119 583.90749653 64.51945119 583.90749653 61 584 C58.59378438 583.15066009 56.49759125 582.26014004 54.234375 581.125 C53.57692291 580.80941635 52.91947083 580.4938327 52.24209595 580.16868591 C50.81889463 579.48380259 49.39866539 578.7927162 47.98114014 578.09616089 C44.93874981 576.60143215 41.8822728 575.13664924 38.82614136 573.67027283 C37.23943523 572.90877549 35.65344413 572.14578661 34.06814575 571.38136292 C26.2271303 567.60626503 18.30935513 564.01105545 10.375 560.4375 C-1.72176707 554.97573332 -13.76177077 549.4037434 -25.75244141 543.71264648 C-27.5734604 542.85236856 -29.39512356 541.99307467 -31.22953796 541.16174316 C-35.64792586 539.15345995 -39.93331712 536.97738167 -44.21557617 534.69165039 C-62.86181726 525.10091685 -78.78708833 523.15455341 -99.58636475 523.64379883 C-103.37572306 523.71818757 -107.16510549 523.71550742 -110.95507812 523.72070312 C-118.30571176 523.74144584 -125.65066515 523.84968654 -133 524 C-133 518.72 -133 513.44 -133 508 C-97.36 508 -61.72 508 -25 508 C-25 484.9 -25 461.8 -25 438 C-82.42 438 -139.84 438 -199 438 C-199.0825 457.655625 -199.165 477.31125 -199.25 497.5625 C-199.33556152 506.83323608 -199.33556152 506.83323608 -199.42285156 516.29125977 C-199.41635973 521.88606633 -199.41635973 521.88606633 -199.39398193 527.4808197 C-199.39166921 529.95107128 -199.41274447 532.42141857 -199.45306396 534.89134216 C-199.89968066 553.90770515 -199.89968066 553.90770515 -190.48842239 569.71024418 C-189.01481388 571.16337269 -187.50862992 572.58326422 -186 574 C-184.86286786 575.41616967 -183.74820632 576.85215942 -182.6953125 578.33203125 C-182.26476562 578.91275391 -181.83421875 579.49347656 -181.390625 580.09179688 C-180.97296875 580.65962891 -180.5553125 581.22746094 -180.125 581.8125 C-175.82475487 587.60173375 -171.44205709 593.31890674 -167 599 C-162.60537462 604.62255306 -158.26349822 610.27735566 -154 616 C-149.79856231 621.63919469 -145.52021479 627.21107286 -141.1875 632.75 C-136.21384021 639.11012248 -131.32841468 645.52896102 -126.5 652 C-121.43967796 658.78047345 -116.32158097 665.51077831 -111.125 672.1875 C-110.52365234 672.96029297 -109.92230469 673.73308594 -109.30273438 674.52929688 C-106.78025093 677.87622396 -106.78025093 677.87622396 -104 681 C-104.16591878 688.22833263 -105.51084978 695.29516071 -107.046875 702.33642578 C-107.25411697 703.31159118 -107.46135895 704.28675657 -107.67488098 705.29147243 C-108.36056893 708.51073789 -109.05529142 711.72798272 -109.75 714.9453125 C-110.24139945 717.24441526 -110.73218938 719.54364837 -111.22241211 721.84300232 C-112.26624801 726.73352802 -113.31392341 731.62320836 -114.36474609 736.51223755 C-116.00599005 744.14865853 -117.63876433 751.78687273 -119.26953125 759.42553711 C-119.81786947 761.9937595 -120.36620931 764.56198155 -120.91455078 767.13020325 C-121.18624084 768.40278299 -121.45793091 769.67536274 -121.737854 770.98650551 C-122.56403435 774.85484036 -123.39104865 778.7229961 -124.21826172 782.59111023 C-129.0151807 805.0281268 -133.74846858 827.47819872 -138.44995117 849.93538666 C-139.00089566 852.56677779 -139.55215304 855.19810318 -140.10351562 857.82940674 C-142.07101428 867.21918586 -144.03686577 876.6093073 -146 886 C-153.1464403 884.90298426 -159.28357946 882.13201873 -165.875 879.25 C-166.5366214 878.96232758 -167.1982428 878.67465515 -167.87991333 878.37826538 C-186.49006675 870.25593894 -204.51578204 860.91694888 -221 849 C-221.66467285 848.52175781 -222.3293457 848.04351563 -223.01416016 847.55078125 C-245.28565895 831.4286821 -245.28565895 831.4286821 -248 826 C-247.49987793 823.99206543 -247.49987793 823.99206543 -246.60742188 821.48242188 C-246.27486893 820.53557526 -245.94231598 819.58872864 -245.59968567 818.6131897 C-245.2264769 817.5755246 -244.85326813 816.5378595 -244.46875 815.46875 C-244.08567184 814.38556488 -243.70259369 813.30237976 -243.3079071 812.18637085 C-242.47831698 809.84421038 -241.64517797 807.5033046 -240.80892944 805.16351318 C-239.4994854 801.49855971 -238.20034201 797.83009702 -236.90356445 794.16064453 C-232.77178796 782.48802646 -228.58730651 770.83622613 -224.32421875 759.2109375 C-223.27715043 756.33968471 -222.23099445 753.46810104 -221.18505859 750.59643555 C-220.20012109 747.90943155 -219.19811556 745.22920595 -218.1953125 742.54882812 C-217.6020994 740.92606076 -217.00960662 739.30302983 -216.41796875 737.6796875 C-216.13982834 736.95300873 -215.86168793 736.22632996 -215.57511902 735.47763062 C-214.18132954 731.66407703 -214.18132954 731.66407703 -214.65576172 727.73242188 C-216.06173357 725.92043927 -217.48546447 724.242035 -219.08984375 722.6015625 C-219.70375977 721.96468506 -220.31767578 721.32780762 -220.95019531 720.67163086 C-221.60600586 719.99624268 -222.26181641 719.32085449 -222.9375 718.625 C-229.29550918 711.95516006 -235.17386372 705.10574702 -240.69824219 697.734375 C-242.00751531 695.98998711 -243.33504381 694.26062224 -244.6640625 692.53125 C-275.90292402 651.41975606 -305.52000738 591.03136867 -304 538 C-305.35544922 537.86694458 -305.35544922 537.86694458 -306.73828125 537.73120117 C-312.39418547 536.91450202 -317.75740098 535.02975175 -323.1875 533.30078125 C-325.06031694 532.71218385 -326.93313461 532.1235888 -328.80597878 531.53507805 C-330.81553165 530.90249356 -332.82423218 530.26726841 -334.83270264 529.6312561 C-341.23486616 527.6040687 -347.64202065 525.59273854 -354.04853439 523.57935143 C-356.3124248 522.86765563 -358.57609807 522.15527226 -360.8397522 521.44282532 C-372.20381831 517.86801548 -383.57948899 514.33154385 -394.9609375 510.8125 C-395.77806465 510.55979025 -396.5951918 510.3070805 -397.43708038 510.04671288 C-404.67517873 507.80838977 -411.91379986 505.57176261 -419.15332031 503.33804321 C-422.91117335 502.17854063 -426.66854244 501.01748231 -430.4255867 499.85536194 C-431.81289258 499.42662174 -433.20039923 498.99853059 -434.58811569 498.57112122 C-436.48288961 497.9875297 -438.37696296 497.40166506 -440.27099609 496.81567383 C-441.33482513 496.4873909 -442.39865417 496.15910797 -443.49472046 495.82087708 C-446 495 -446 495 -448 494 C-447.67 493.01 -447.34 492.02 -447 491 C-444.47793426 490.03927541 -442.08072776 489.29072308 -439.48168945 488.60253906 C-438.6894847 488.38208703 -437.89727995 488.161635 -437.08106899 487.9345026 C-434.42829026 487.19953692 -431.77094697 486.48269981 -429.11328125 485.765625 C-427.24173686 485.25080893 -425.37050596 484.73485203 -423.49957275 484.21781921 C-418.47874891 482.83356876 -413.45387552 481.46459773 -408.42808914 480.09849167 C-403.26011327 478.69105819 -398.09587595 477.27005272 -392.93139648 475.84985352 C-385.74366222 473.87436923 -378.55483971 471.90294866 -371.36449528 469.93698597 C-360.60361986 466.99425526 -349.85175225 464.02124151 -339.109375 461.01171875 C-337.81231968 460.64872473 -336.51525667 460.28575817 -335.21818542 459.92282104 C-330.5350757 458.61182063 -325.85216887 457.30012546 -321.17056274 455.98376465 C-318.0951413 455.11979738 -315.01845424 454.26049651 -311.94140625 453.40234375 C-311.06139954 453.15361008 -310.18139282 452.9048764 -309.27471924 452.64860535 C-306.10295544 451.76725356 -303.30884593 451 -300 451 C-299.88785156 449.74316406 -299.77570313 448.48632812 -299.66015625 447.19140625 C-299.04487662 441.65388961 -297.77908515 436.33766207 -296.4375 430.9375 C-296.20353516 429.97650391 -295.96957031 429.01550781 -295.72851562 428.02539062 C-295.15732057 425.68232518 -294.58107577 423.34063082 -294 421 C-303.66757641 412.65210004 -303.66757641 412.65210004 -313.5 404.5 C-317.7279248 401.06791987 -321.8752789 397.55448829 -326 394 C-331.01591689 389.67827137 -336.09175299 385.44520804 -341.23046875 381.26953125 C-347.10799411 376.45311061 -352.87611914 371.505057 -358.66601562 366.58398438 C-365.12406926 361.09729486 -371.61497616 355.66222871 -378.1875 350.3125 C-381.8809391 347.2756723 -385.52298486 344.18039045 -389.16625977 341.08374023 C-392.55954109 338.2045468 -395.98267786 335.36795763 -399.4375 332.5625 C-404.47972014 328.46337553 -409.41079406 324.24351759 -414.31811523 319.98461914 C-416.81145851 317.82954903 -419.25388434 315.83074377 -422 314 C-422 313.01 -422 312.02 -422 311 C-399.9026973 314.16083746 -377.83106839 317.47151287 -355.77618182 320.91580558 C-350.93131219 321.67210509 -346.08577398 322.42399651 -341.23977661 323.17303467 C-340.54656276 323.28019027 -339.8533489 323.38734587 -339.13912857 323.49774861 C-335.61242094 324.04274391 -332.08563077 324.58720191 -328.55879021 325.13133621 C-321.33151578 326.24715446 -314.1057955 327.37192679 -306.88256836 328.51367188 C-300.45992009 329.52881904 -294.03504602 330.52819277 -287.60702258 331.50874984 C-284.23751945 332.02333981 -280.86966391 332.54571884 -277.50443077 333.08758926 C-273.79576171 333.68087527 -270.08386533 334.24633886 -266.36987305 334.80517578 C-265.27047394 334.98779465 -264.17107483 335.17041351 -263.0383606 335.35856628 C-261.52871483 335.57711525 -261.52871483 335.57711525 -259.98857117 335.80007935 C-259.11634257 335.93608614 -258.24411398 336.07209293 -257.34545422 336.21222115 C-254.07628006 335.91642007 -253.05612443 334.45903302 -251 332 C-250.13329995 330.89586519 -249.29472586 329.76880152 -248.4921875 328.6171875 C-247.84830078 327.70259766 -247.84830078 327.70259766 -247.19140625 326.76953125 C-246.75699219 326.14433594 -246.32257813 325.51914062 -245.875 324.875 C-241.23986486 318.23986486 -241.23986486 318.23986486 -239 316 C-239.3194858 311.6232359 -240.57617284 308.46167723 -242.73828125 304.68359375 C-243.30490479 303.68312012 -243.87152832 302.68264648 -244.45532227 301.65185547 C-245.06819092 300.59111816 -245.68105957 299.53038086 -246.3125 298.4375 C-246.94406006 297.32777832 -247.57562012 296.21805664 -248.22631836 295.07470703 C-250.14254779 291.71162699 -252.07048946 288.35547326 -254 285 C-255.04772607 283.16585048 -256.09466348 281.33125011 -257.140625 279.49609375 C-259.09252512 276.07331365 -261.04866281 272.65301024 -263.0078125 269.234375 C-267.828621 260.81305495 -272.58966615 252.35782648 -277.35888672 243.90722656 C-280.07049023 239.10363022 -282.78540096 234.30190394 -285.5 229.5 C-286.58334943 227.58334243 -287.66668275 225.66667576 -288.75 223.75 C-289.28625 222.80125 -289.8225 221.8525 -290.375 220.875 C-295.25 212.25 -295.25 212.25 -296.87573242 209.37353516 C-297.95643119 207.4616421 -299.03732236 205.5498578 -300.1184082 203.63818359 C-302.86865816 198.77436552 -305.61528339 193.90855881 -308.35546875 189.0390625 C-309.46598467 187.06761754 -310.57665995 185.09626234 -311.6875 183.125 C-312.22205811 182.1752832 -312.75661621 181.22556641 -313.30737305 180.24707031 C-315.83908397 175.76403455 -318.39821687 171.30257304 -321.0390625 166.8828125 C-321.50868408 166.09632324 -321.97830566 165.30983398 -322.4621582 164.49951172 C-323.33728276 163.04165642 -324.21828053 161.58730426 -325.10620117 160.13720703 C-328 155.32615261 -328 155.32615261 -328 152 C-324.31842978 153.38126429 -320.9977555 155.04808503 -317.59765625 157.01953125 C-316.55440186 157.62265137 -315.51114746 158.22577148 -314.4362793 158.84716797 C-313.32293213 159.49572754 -312.20958496 160.14428711 -311.0625 160.8125 C-309.88788158 161.49383319 -308.71315675 162.17498299 -307.53833008 162.85595703 C-298.60494842 168.04031871 -289.70875175 173.28714944 -280.82421875 178.5546875 C-274.06336881 182.56015887 -267.28136625 186.52941628 -260.5 190.5 C-251.11435173 195.99631543 -241.73912408 201.50965479 -232.38012695 207.05126953 C-227.28571284 210.06539088 -222.18395002 213.06660984 -217.07421875 216.0546875 C-216.47247833 216.40661163 -215.87073792 216.75853577 -215.25076294 217.12112427 C-214.6427182 217.47673431 -214.03467346 217.83234436 -213.40820312 218.19873047 C-199.68388897 226.22560692 -186.01769523 234.34160174 -172.40234375 242.55224609 C-171.21318359 243.26888428 -171.21318359 243.26888428 -170 244 C-169.12085938 244.5667041 -168.24171875 245.1334082 -167.3359375 245.71728516 C-165.08848679 247.28366376 -165.08848679 247.28366376 -162.6875 246.5 C-159.63111059 244.79410824 -156.68846159 242.95450805 -153.76953125 241.0234375 C-152 240 -152 240 -150 240 C-150.12599673 239.10812485 -150.25199347 238.21624969 -150.38180828 237.29734802 C-153.6071154 214.41112885 -156.64969562 191.50685215 -159.54555154 168.57674789 C-159.97979896 165.14047605 -160.41546292 161.70438432 -160.85110158 158.26828861 C-161.87670234 150.17877681 -162.90017374 142.08899778 -163.92211914 133.99902344 C-164.97307554 125.67965098 -166.02749688 117.36072267 -167.08355933 109.04199696 C-167.99842198 101.83470396 -168.91135667 94.62716862 -169.82269257 87.41942883 C-170.36370283 83.14065926 -170.90540022 78.86197974 -171.44890785 74.58352661 C-171.95598809 70.59106379 -172.46065527 66.59830331 -172.96343803 62.60529709 C-173.14801653 61.14263467 -173.33344521 59.68007925 -173.51978302 58.21763992 C-173.77361425 56.22440537 -174.02408005 54.23074309 -174.27436829 52.23706055 C-174.41536107 51.12235886 -174.55635386 50.00765717 -174.70161915 48.85917664 C-175 46 -175 46 -175 42 C-171.09502363 43.30165879 -169.84576012 45.67625945 -167.625 48.9375 C-166.72726229 50.22444677 -165.82878901 51.51088065 -164.9296875 52.796875 C-164.45370117 53.48201172 -163.97771484 54.16714844 -163.48730469 54.87304688 C-160.94702637 58.50582834 -158.34810412 62.09595691 -155.75 65.6875 C-155.20553223 66.441521 -154.66106445 67.19554199 -154.10009766 67.97241211 C-149.51736815 74.30916567 -144.87897365 80.60400625 -140.23144531 86.89331055 C-135.74230797 92.97478595 -131.31032964 99.09562476 -126.89453125 105.23046875 C-122.96607895 110.68083962 -118.99285479 116.09667078 -115 121.5 C-107.72040486 131.3539512 -100.55169487 141.28574596 -93.39550781 151.22949219 C-91.78534491 153.46610144 -90.17428039 155.7020561 -88.5625 157.9375 C-88.02947266 158.67677734 -87.49644531 159.41605469 -86.94726562 160.17773438 C-84.14813205 164.05216536 -81.33264094 167.91355442 -78.4921875 171.7578125 C-77.90614746 172.5516333 -77.32010742 173.3454541 -76.71630859 174.16333008 C-75.53743151 175.75334176 -74.35291359 177.33918778 -73.16259766 178.9206543 C-70.21982696 182.85621127 -67.45476709 186.80813963 -64.90625 191.01171875 C-64.40488525 191.80827881 -63.90352051 192.60483887 -63.38696289 193.42553711 C-62.44946344 194.92897862 -61.54954696 196.45680601 -60.69702148 198.01000977 C-59.24952687 200.28729575 -58.26928162 201.52087586 -56 203 C-52.75756088 203.13994857 -52.75756088 203.13994857 -49.28735352 202.68457031 C-48.11149185 202.56511047 -46.93563019 202.44565063 -45.72413635 202.3225708 C-44.82517136 202.21612244 -43.92620636 202.10967407 -43 202 C-37.95569123 179.14914055 -33.0711962 156.26693569 -28.25565577 133.36689091 C-27.29756643 128.81231541 -26.33790089 124.25807204 -25.37838745 119.70379639 C-23.36879989 110.16429683 -21.36070125 100.62448435 -19.35296631 91.08459473 C-16.31177904 76.63425051 -13.26938697 62.18416003 -10.22554958 47.73437381 C-9.08855976 42.33654271 -7.95236836 36.93854436 -6.81682134 31.54040956 C-6.11470861 28.2034036 -5.41198586 24.86652631 -4.70910454 21.52968216 C-4.38351535 19.98333632 -4.05818692 18.43693554 -3.73313713 16.89047623 C-3.29007741 14.78273403 -2.84609544 12.67518813 -2.40188599 10.56768799 C-2.15379747 9.38879627 -1.90570896 8.20990456 -1.65010262 6.99528885 C-1.14099107 4.64960357 -0.60266389 2.32295713 0 0 Z M-53 299 C-53 340.25 -53 381.5 -53 424 C-38.15 424 -23.3 424 -8 424 C-8 449.41 -8 474.82 -8 501 C2.89 501 13.78 501 25 501 C25 434.34 25 367.68 25 299 C-0.74 299 -26.48 299 -53 299 Z M-149 329 C-149 360.35 -149 391.7 -149 424 C-122.6 424 -96.2 424 -69 424 C-69 392.65 -69 361.3 -69 329 C-95.4 329 -121.8 329 -149 329 Z M42 329 C42 385.76 42 442.52 42 501 C65.76 501 89.52 501 114 501 C114 444.24 114 387.48 114 329 C90.24 329 66.48 329 42 329 Z M130 351 C130 400.5 130 450 130 501 C151.45 501 172.9 501 195 501 C195 451.5 195 402 195 351 C173.55 351 152.1 351 130 351 Z " fill="#000000" transform="translate(448,0)"/>
</svg>
